<?xml version="1.0" encoding="utf-8"?>
<!-- Generator: Adobe Illustrator 18.0.0, SVG Export Plug-In . SVG Version: 6.00 Build 0)  -->
<!DOCTYPE svg PUBLIC "-//W3C//DTD SVG 1.1//EN" "http://www.w3.org/Graphics/SVG/1.1/DTD/svg11.dtd">
<svg version="1.1" id="Слой_2" xmlns="http://www.w3.org/2000/svg" xmlns:xlink="http://www.w3.org/1999/xlink" x="0px" y="0px"
	 viewBox="0 3126 1170 1170" enable-background="new 0 3126 1170 1170" xml:space="preserve">
<path fill="#FFFFFF" d="M796.8,3329.4c-55.1,19.5-76.7,45.7-85.7,67.2c-31.6,74.6,30.6,223.9,52.1,275.7c2.4,5.4,7.7,18.2,5,33.6
	c-4.4,26.2-28.6,40.7-52.1,57.2c-75,52.4-61.5,67.9-97.5,80.7c-36.3,13.1-42.4-5.4-144.6-15.1c-53.8-5-86.7-3.4-141.2,0
	c-65.9,3.7-78.3,10.1-87.4,18.5c-9.1,8.4-19.2,23.2-23.5,116c-3,67.6-4.7,101.5,5,117.7c28.2,47.1,98.5,52.8,154.7,57.2
	c48.8,3.7,90.8-3.7,173.1-18.5c105.6-19.2,159-29.2,191.6-55.5c32.3-25.9,18.2-31.3,87.4-121c55.5-71.9,69.3-74.3,90.8-117.7
	c20.5-41.4,27.6-78,37-127.8c11.8-61.5,5.4-71.6,20.2-131.1c9.4-37.7,15.5-48.8,20.2-80.7c5.4-38,9.4-64.9,0-95.8
	c-3.4-10.8-22.2-71.9-82.4-90.8C854,3278.6,799.2,3327.1,796.8,3329.4z"/>
<path fill="#9C0202" d="M585,3126c-323.1,0-585,261.9-585,585s261.9,585,585,585s585-261.9,585-585S908.1,3126,585,3126z
	 M317.4,4083.9c-28.6,1.7-52.8-21.2-52.8-49.8v-122.7c0-26.9,21.2-49.1,48.1-50.1l142.6-5c14.1-0.7,27.6,5,37.7,15.1l28.6,28.9
	c13.1,13.4,32.9,18.5,51.1,12.4c46.1-14.8,134.8-62.9,221.6-218.5c8.7-15.8,8.4-35-1.3-50.4l-24.9-40.3c-4.7-7.7-7.4-16.8-7.4-25.9
	l-1-166.4c0-27.6,22.2-50.1,50.1-50.1h121c28.6,0,51.4,23.9,49.8,52.4C972.6,3573.2,900.4,4048.2,317.4,4083.9z"/>
</svg>
